<mxfile host="app.diagrams.net" agent="Mozilla/5.0 (Windows NT 10.0; Win64; x64) AppleWebKit/537.36 (KHTML, like Gecko) Chrome/138.0.0.0 Safari/537.36" version="28.0.7">
  <diagram name="第 1 页" id="2tmaFfGcORO-H0DvOp1o">
    <mxGraphModel dx="1426" dy="751" grid="1" gridSize="10" guides="1" tooltips="1" connect="1" arrows="1" fold="1" page="1" pageScale="1" pageWidth="827" pageHeight="1169" math="0" shadow="0">
      <root>
        <mxCell id="0" />
        <mxCell id="1" parent="0" />
        <mxCell id="-Zh2vAB62YVJtqlcbdIj-1" value="" style="points=[];aspect=fixed;html=1;align=center;shadow=0;dashed=0;fillColor=#FF6A00;strokeColor=none;shape=mxgraph.alibaba_cloud.ecs_elastic_compute_service;" vertex="1" parent="1">
          <mxGeometry x="220" y="110" width="48.6" height="45.3" as="geometry" />
        </mxCell>
        <mxCell id="-Zh2vAB62YVJtqlcbdIj-2" value="客户端" style="text;html=1;align=center;verticalAlign=middle;resizable=0;points=[];autosize=1;strokeColor=none;fillColor=none;" vertex="1" parent="1">
          <mxGeometry x="214.3" y="170" width="60" height="30" as="geometry" />
        </mxCell>
        <mxCell id="-Zh2vAB62YVJtqlcbdIj-3" value="" style="points=[];aspect=fixed;html=1;align=center;shadow=0;dashed=0;fillColor=#FF6A00;strokeColor=none;shape=mxgraph.alibaba_cloud.ecs_elastic_compute_service;" vertex="1" parent="1">
          <mxGeometry x="430" y="110" width="48.6" height="45.3" as="geometry" />
        </mxCell>
        <mxCell id="-Zh2vAB62YVJtqlcbdIj-4" value="服务器" style="text;html=1;align=center;verticalAlign=middle;resizable=0;points=[];autosize=1;strokeColor=none;fillColor=none;" vertex="1" parent="1">
          <mxGeometry x="424.3" y="170" width="60" height="30" as="geometry" />
        </mxCell>
      </root>
    </mxGraphModel>
  </diagram>
</mxfile>
